<?xml version="1.0" standalone="no"?>
<!DOCTYPE svg PUBLIC "-//W3C//DTD SVG 20010904//EN"
 "http://www.w3.org/TR/2001/REC-SVG-20010904/DTD/svg10.dtd">
<svg version="1.0" xmlns="http://www.w3.org/2000/svg"
 width="360.000000pt" height="360.000000pt" viewBox="0 0 360.000000 360.000000"
 preserveAspectRatio="xMidYMid meet">

<g transform="translate(0.000000,360.000000) scale(0.100000,-0.100000)"
fill="#000000" stroke="none">
<path d="M1130 1800 l0 -870 34 0 c33 0 35 2 38 37 3 36 5 38 40 41 35 3 37 5
40 40 3 35 5 37 41 40 l37 3 0 -40 0 -41 40 0 40 0 0 -40 c0 -40 0 -40 39 -40
39 0 40 1 43 37 3 36 5 38 40 41 35 3 37 5 40 40 3 35 5 37 41 40 l37 3 0 -40
0 -41 40 0 40 0 0 -40 0 -40 40 0 40 0 0 40 0 40 40 0 40 0 0 41 0 40 38 -3
c35 -3 37 -5 40 -40 3 -35 5 -37 40 -40 35 -3 37 -5 40 -40 3 -37 4 -38 43
-38 39 0 39 0 39 40 l0 40 40 0 40 0 0 41 0 40 38 -3 c35 -3 37 -5 40 -40 3
-35 5 -37 40 -40 35 -3 37 -5 40 -40 3 -36 5 -38 38 -38 l34 0 0 870 0 870
-34 0 c-33 0 -35 -2 -38 -37 -3 -36 -5 -38 -40 -41 -35 -3 -37 -5 -40 -40 -3
-35 -5 -37 -40 -40 l-38 -3 0 40 0 41 -40 0 -40 0 0 40 c0 40 0 40 -39 40 -39
0 -40 -1 -43 -37 -3 -36 -5 -38 -40 -41 -35 -3 -37 -5 -40 -40 -3 -35 -5 -37
-40 -40 l-38 -3 0 40 0 41 -40 0 -40 0 0 40 c0 40 0 40 -39 40 -39 0 -40 -1
-43 -37 -3 -36 -5 -38 -40 -41 -37 -3 -38 -4 -38 -43 l0 -40 -37 3 c-36 3 -38
5 -41 40 -3 35 -5 37 -40 40 -35 3 -37 5 -40 41 -3 36 -4 37 -43 37 -39 0 -39
0 -39 -40 l0 -40 -40 0 -40 0 0 -41 0 -40 -37 3 c-36 3 -38 5 -41 40 -3 35 -5
37 -40 40 -35 3 -37 5 -40 41 -3 35 -5 37 -38 37 l-34 0 0 -870z m390 750 c0
-40 0 -40 39 -40 39 0 40 -1 43 -37 3 -36 5 -38 41 -41 l37 -3 0 40 0 41 40 0
40 0 0 40 0 40 40 0 40 0 0 -40 0 -40 40 0 40 0 0 -41 0 -40 38 3 c35 3 37 5
40 41 3 36 4 37 43 37 39 0 39 0 39 40 l0 40 40 0 40 0 0 -40 0 -40 40 0 40 0
0 -41 0 -40 38 3 c35 3 37 5 40 41 3 36 4 37 43 37 l39 0 0 -408 c0 -225 -3
-544 -7 -710 l-6 -302 -33 0 c-31 0 -33 2 -36 38 -3 36 -4 37 -43 37 -39 0
-40 -1 -43 -37 -3 -35 -5 -37 -40 -40 -35 -3 -37 -5 -40 -40 -3 -36 -5 -38
-38 -38 -33 0 -34 1 -34 40 l0 40 -40 0 -40 0 0 40 0 40 -40 0 -40 0 0 -40 0
-40 -40 0 -40 0 0 -40 0 -40 -40 0 -40 0 0 40 0 40 -40 0 -40 0 0 40 0 40 -40
0 -40 0 0 -40 0 -40 -40 0 -40 0 0 -40 c0 -39 -1 -40 -34 -40 -33 0 -35 2 -38
38 -3 35 -5 37 -40 40 -35 3 -37 5 -40 40 -3 36 -4 37 -43 37 -39 0 -40 -1
-43 -37 -3 -36 -5 -38 -38 -38 l-34 0 0 710 0 710 34 0 c33 0 35 -2 38 -37 3
-36 5 -38 41 -41 l37 -3 0 40 0 41 40 0 40 0 0 40 0 40 40 0 40 0 0 -40z"/>
<path d="M1360 2160 l0 -40 80 0 80 0 0 40 0 40 -80 0 -80 0 0 -40z"/>
<path d="M1600 2160 l0 -40 320 0 320 0 0 40 0 40 -320 0 -320 0 0 -40z"/>
<path d="M1360 1920 l0 -40 80 0 80 0 0 40 0 40 -80 0 -80 0 0 -40z"/>
<path d="M1600 1920 l0 -40 200 0 200 0 0 40 0 40 -200 0 -200 0 0 -40z"/>
<path d="M1360 1680 l0 -40 400 0 400 0 0 40 0 40 -400 0 -400 0 0 -40z"/>
<path d="M1360 1440 l0 -40 200 0 200 0 0 40 0 40 -200 0 -200 0 0 -40z"/>
</g>
</svg>
